{
  "accessors": [
    {
      "bufferView": 2,
      "componentType": 5126,
      "count": 441,
      "max": [
        200,
        0,
        200
      ],
      "min": [
        -200,
        0,
        -200
      ],
      "type": "VEC3"
    },
    {
      "bufferView": 2,
      "byteOffset": 5292,
      "componentType": 5126,
      "count": 441,
      "max": [
        0,
        1,
        -0
      ],
      "min": [
        0,
        1,
        -0
      ],
      "type": "VEC3"
    },
    {
      "bufferView": 3,
      "componentType": 5126,
      "count": 441,
      "max": [
        1,
        0,
        0,
        1
      ],
      "min": [
        1,
        0,
        0,
        1
      ],
      "type": "VEC4"
    },
    {
      "bufferView": 0,
      "componentType": 5125,
      "count": 2400,
      "max": [
        440
      ],
      "min": [
        0
      ],
      "type": "SCALAR"
    },
    {
      "bufferView": 2,
      "byteOffset": 10584,
      "componentType": 5126,
      "count": 80,
      "max": [
        -1212.0987548828125,
        915.6903076171875,
        373.23208618164062
      ],
      "min": [
        -15274.83203125,
        -928.98760986328125,
        -1471.44580078125
      ],
      "type": "VEC3"
    },
    {
      "bufferView": 2,
      "byteOffset": 11544,
      "componentType": 5126,
      "count": 80,
      "max": [
        0.062504522502422333,
        0.99976789951324463,
        0.9997679591178894
      ],
      "min": [
        -1,
        -0.99976789951324463,
        -0.99976789951324463
      ],
      "type": "VEC3"
    },
    {
      "bufferView": 3,
      "byteOffset": 7056,
      "componentType": 5126,
      "count": 80,
      "max": [
        0.99976789951324463,
        0.07541155070066452,
        1,
        1
      ],
      "min": [
        -0.99976789951324463,
        -0.075411498546600342,
        -0.075411729514598846,
        1
      ],
      "type": "VEC4"
    },
    {
      "bufferView": 1,
      "componentType": 5126,
      "count": 80,
      "max": [
        0.90872752666473389,
        0.99146640300750732
      ],
      "min": [
        0.0085336258634924889,
        0.12752223014831543
      ],
      "type": "VEC2"
    },
    {
      "bufferView": 0,
      "byteOffset": 9600,
      "componentType": 5125,
      "count": 258,
      "max": [
        79
      ],
      "min": [
        0
      ],
      "type": "SCALAR"
    },
    {
      "bufferView": 2,
      "byteOffset": 12504,
      "componentType": 5126,
      "count": 464,
      "max": [
        4226.59228515625,
        5719.0400390625,
        1318.4964599609375
      ],
      "min": [
        -5856.95703125,
        -4523.85693359375,
        -13.406452178955078
      ],
      "type": "VEC3"
    },
    {
      "bufferView": 2,
      "byteOffset": 18072,
      "componentType": 5126,
      "count": 464,
      "max": [
        0.98564821481704712,
        0.98564821481704712,
        1
      ],
      "min": [
        -0.98564821481704712,
        -0.98564821481704712,
        -0.99840754270553589
      ],
      "type": "VEC3"
    },
    {
      "bufferView": 3,
      "byteOffset": 8336,
      "componentType": 5126,
      "count": 464,
      "max": [
        1,
        0.999622642993927,
        1,
        1
      ],
      "min": [
        -0.99993544816970825,
        -0.77748727798461914,
        -0.98585259914398193,
        -1
      ],
      "type": "VEC4"
    },
    {
      "bufferView": 1,
      "byteOffset": 640,
      "componentType": 5126,
      "count": 464,
      "max": [
        0.97951114177703857,
        0.99146640300750732
      ],
      "min": [
        0.0085336342453956604,
        0.0085335969924926758
      ],
      "type": "VEC2"
    },
    {
      "bufferView": 0,
      "byteOffset": 10632,
      "componentType": 5125,
      "count": 1233,
      "max": [
        463
      ],
      "min": [
        0
      ],
      "type": "SCALAR"
    },
    {
      "bufferView": 2,
      "byteOffset": 23640,
      "componentType": 5126,
      "count": 409,
      "max": [
        1149.4979248046875,
        1000,
        -13.406435966491699
      ],
      "min": [
        -1212.0986328125,
        -1000,
        -2778.39990234375
      ],
      "type": "VEC3"
    },
    {
      "bufferView": 2,
      "byteOffset": 28548,
      "componentType": 5126,
      "count": 409,
      "max": [
        0.99999731779098511,
        0.99999731779098511,
        0.99564230442047119
      ],
      "min": [
        -1,
        -0.99999731779098511,
        -1
      ],
      "type": "VEC3"
    },
    {
      "bufferView": 3,
      "byteOffset": 15760,
      "componentType": 5126,
      "count": 409,
      "max": [
        1,
        0.85404598712921143,
        1,
        1
      ],
      "min": [
        -1,
        -0.98642832040786743,
        -0.99999755620956421,
        1
      ],
      "type": "VEC4"
    },
    {
      "bufferView": 1,
      "byteOffset": 4352,
      "componentType": 5126,
      "count": 409,
      "max": [
        0.96121722459793091,
        0.99146640300750732
      ],
      "min": [
        0.0085336342453956604,
        0.019927263259887695
      ],
      "type": "VEC2"
    },
    {
      "bufferView": 0,
      "byteOffset": 15564,
      "componentType": 5125,
      "count": 1044,
      "max": [
        408
      ],
      "min": [
        0
      ],
      "type": "SCALAR"
    },
    {
      "bufferView": 4,
      "componentType": 5126,
      "count": 194,
      "max": [
        3.3333332538604736
      ],
      "min": [
        0
      ],
      "type": "SCALAR"
    },
    {
      "bufferView": 5,
      "componentType": 5126,
      "count": 194,
      "max": [
        0.70710676908493042,
        0.48404788970947266,
        0.5,
        0.70710676908493042
      ],
      "min": [
        -0.5,
        -0.70710676908493042,
        -0.70710676908493042,
        -0.48404788970947266
      ],
      "type": "VEC4"
    }
  ],
  "animations": [
    {
      "channels": [
        {
          "sampler": 0,
          "target": {
            "node": 11,
            "path": "rotation"
          }
        }
      ],
      "name": "CINEMA_4D_Main",
      "samplers": [
        {
          "input": 19,
          "interpolation": "LINEAR",
          "output": 20
        }
      ]
    }
  ],
  "asset": {
    "extras": {
      "author": "Adrian Hage (https://sketchfab.com/data3anshow)",
      "license": "CC-BY-4.0 (http://creativecommons.org/licenses/by/4.0/)",
      "source": "https://sketchfab.com/models/6ce5667e8d5c47068ea13196036efd52",
      "title": "Windmill ( Animated )"
    },
    "generator": "Sketchfab-3.18.5",
    "version": "2.0"
  },
  "bufferViews": [
    {
      "buffer": 0,
      "byteLength": 19740,
      "byteOffset": 0,
      "name": "floatBufferViews",
      "target": 34963
    },
    {
      "buffer": 0,
      "byteLength": 7624,
      "byteOffset": 19740,
      "byteStride": 8,
      "name": "floatBufferViews",
      "target": 34962
    },
    {
      "buffer": 0,
      "byteLength": 33456,
      "byteOffset": 27364,
      "byteStride": 12,
      "name": "floatBufferViews",
      "target": 34962
    },
    {
      "buffer": 0,
      "byteLength": 22304,
      "byteOffset": 60820,
      "byteStride": 16,
      "name": "floatBufferViews",
      "target": 34962
    },
    {
      "buffer": 0,
      "byteLength": 776,
      "byteOffset": 83124,
      "name": "floatBufferViews"
    },
    {
      "buffer": 0,
      "byteLength": 3104,
      "byteOffset": 83900,
      "byteStride": 16,
      "name": "floatBufferViews"
    }
  ],
  "buffers": [
    {
      "byteLength": 87004,
      "uri": "windmill_a.bin"
    }
  ],
  "images": [
    {
      "uri": "textures/material_baseColor.png"
    }
  ],
  "materials": [
    {
      "doubleSided": true,
      "emissiveFactor": [
        0,
        0,
        0
      ],
      "name": "Plane__0",
      "pbrMetallicRoughness": {
        "baseColorFactor": [
          1,
          1,
          1,
          1
        ],
        "metallicFactor": 0,
        "roughnessFactor": 0.59999999999999998
      }
    },
    {
      "doubleSided": true,
      "emissiveFactor": [
        0,
        0,
        0
      ],
      "name": "material",
      "pbrMetallicRoughness": {
        "baseColorFactor": [
          1,
          1,
          1,
          1
        ],
        "baseColorTexture": {
          "index": 0,
          "texCoord": 0
        },
        "metallicFactor": 0.25171493900000003,
        "roughnessFactor": 0
      }
    }
  ],
  "meshes": [
    {
      "name": "Plane__0",
      "primitives": [
        {
          "attributes": {
            "NORMAL": 1,
            "POSITION": 0,
            "TANGENT": 2
          },
          "indices": 3,
          "material": 0,
          "mode": 4
        }
      ]
    },
    {
      "name": "pole_Mat_0",
      "primitives": [
        {
          "attributes": {
            "NORMAL": 5,
            "POSITION": 4,
            "TANGENT": 6,
            "TEXCOORD_0": 7
          },
          "indices": 8,
          "material": 1,
          "mode": 4
        }
      ]
    },
    {
      "name": "motor_2_Mat_0",
      "primitives": [
        {
          "attributes": {
            "NORMAL": 10,
            "POSITION": 9,
            "TANGENT": 11,
            "TEXCOORD_0": 12
          },
          "indices": 13,
          "material": 1,
          "mode": 4
        }
      ]
    },
    {
      "name": "motor_1_Mat_0",
      "primitives": [
        {
          "attributes": {
            "NORMAL": 15,
            "POSITION": 14,
            "TANGENT": 16,
            "TEXCOORD_0": 17
          },
          "indices": 18,
          "material": 1,
          "mode": 4
        }
      ]
    }
  ],
  "nodes": [
    {
      "children": [
        1
      ],
      "name": "RootNode (gltf orientation matrix)",
      "rotation": [
        -0.70710678118654746,
        -0,
        -0,
        0.70710678118654757
      ]
    },
    {
      "children": [
        2
      ],
      "name": "RootNode (model correction matrix)"
    },
    {
      "children": [
        3
      ],
      "matrix": [
        1,
        0,
        0,
        0,
        0,
        0,
        1,
        0,
        0,
        -1,
        0,
        0,
        0,
        0,
        0,
        1
      ],
      "name": "3f676a283be34e44a4d4a27c32fac80a.fbx"
    },
    {
      "children": [
        4
      ],
      "name": ""
    },
    {
      "children": [
        5,
        7,
        9,
        11,
        13
      ],
      "name": "RootNode"
    },
    {
      "children": [
        6
      ],
      "name": "CINEMA_4D_Editor",
      "rotation": [
        -0.0050536971539258957,
        0.033998344093561172,
        -0.14694304764270782,
        0.988547682762146
      ],
      "translation": [
        -10999.822265625,
        17459.126953125,
        3001.57373046875
      ]
    },
    {
      "name": ""
    },
    {
      "children": [
        8
      ],
      "name": "Plane"
    },
    {
      "mesh": 0,
      "name": "Plane__0"
    },
    {
      "children": [
        10
      ],
      "name": "pole",
      "rotation": [
        -0.5,
        -0.5,
        0.5,
        0.5
      ],
      "translation": [
        -292.38558959960938,
        15274.83203125,
        -66.963371276855469
      ]
    },
    {
      "mesh": 1,
      "name": "pole_Mat_0"
    },
    {
      "children": [
        12
      ],
      "name": "motor_2",
      "rotation": [
        -0.5,
        -0.5,
        0.5,
        0.5
      ],
      "translation": [
        -292.38558959960938,
        15274.83203125,
        -66.963371276855469
      ]
    },
    {
      "mesh": 2,
      "name": "motor_2_Mat_0"
    },
    {
      "children": [
        14
      ],
      "name": "motor_1",
      "rotation": [
        -0.5,
        -0.5,
        0.5,
        0.5
      ],
      "translation": [
        -292.38558959960938,
        15274.83203125,
        -66.963371276855469
      ]
    },
    {
      "mesh": 3,
      "name": "motor_1_Mat_0"
    }
  ],
  "samplers": [
    {
      "magFilter": 9729,
      "minFilter": 9987,
      "wrapS": 10497,
      "wrapT": 10497
    }
  ],
  "scene": 0,
  "scenes": [
    {
      "name": "OSG_Scene",
      "nodes": [
        0
      ]
    }
  ],
  "textures": [
    {
      "sampler": 0,
      "source": 0
    }
  ]
}

